# xmcd CD database file
#
# Track frame offsets:
#	182
#	14525
#	33387
#	47597
#	64572
#	80597
#	97810
#	119337
#	129205
#	145677
#
# Disc length: 2111 seconds
#
# Revision: 1
# Processed by: cddbd v1.5.2PL0 Copyright (c) Steve Scherf et al.
# Submitted via: CDex 1.51
#
DISCID=77083d0a
DTITLE=Jed Clampit - Gospel Songs My Family Sang
DYEAR=1996
DGENRE=Country
TTITLE0=Old Country Church
TTITLE1=Precious Memories
TTITLE2=This World Is Not My Home
TTITLE3=If I Could Hear My Mother Pray Again
TTITLE4=A Beautiful Life
TTITLE5=Every Hour And Every Day
TTITLE6=Medley - Will The Circle Be Unbroken/Swing Low Sweet Chariot
TTITLE7=Where Could I Go But To The Lord
TTITLE8=Just A Closer Walk With Thee
TTITLE9=Amazing Grace
EXTD=YEAR: 1996
EXTT0=
EXTT1=
EXTT2=
EXTT3=
EXTT4=
EXTT5=
EXTT6=
EXTT7=
EXTT8=
EXTT9=
PLAYORDER=
